<svg xmlns="http://www.w3.org/2000/svg" width="146" height="36" viewBox="0 0 146 36">
    <g fill="none" fill-rule="evenodd">
        <path fill="#FD4F57" d="M25.245 22.13a.217.217 0 0 1-.308 0l-3.165-3.579a.554.554 0 1 0-.784.784l3.193 3.551a.396.396 0 1 1-.56.56l-3.55-3.193a.555.555 0 0 0-.785.784l3.58 3.165a.218.218 0 0 1-.232.358s-2.48-.925-3.732-2.178c-.773-.773-1.158-1.701-1.173-2.576l-.005.004c-.005-.872.112-1.445-.633-2.209l-.95-.877-.999.921c-.748.957-.575 1.599-.58 2.38l-.004-.004c-.016.927-.424 1.91-1.243 2.73-1.531 1.53-4.36 2.362-5.593 1.128-1.234-1.233-.404-4.064 1.126-5.595.82-.819 1.803-1.227 2.73-1.243l-.004-.005c.777-.004 1.402.153 2.314-.617l6.93-7.514a1.29 1.29 0 1 1 1.823 1.823l-5.131 4.733.833.903c.76.737 1.333.62 2.202.626l-.004.004c.875.015 1.803.4 2.576 1.173 1.258 1.258 2.176 3.728 2.176 3.728a.217.217 0 0 1-.048.236zM9.6 8.866a1.29 1.29 0 0 1 1.863.04l3.394 3.68-1.473 1.597-3.744-3.454a1.29 1.29 0 0 1-.04-1.863zm22.6 7.229C32.2 7.21 25 .009 16.118.009S.032 7.211.032 16.094c0 .223.006.446.015.668-.014.71.06 2.308.801 4.4a16.063 16.063 0 0 0 3.121 5.474c2.193 2.733 5.599 5.678 10.879 8.386a2.784 2.784 0 0 0 2.538 0c5.28-2.708 8.685-5.653 10.878-8.386a16.066 16.066 0 0 0 3.121-5.474c.742-2.092.816-3.69.801-4.4.01-.222.015-.445.015-.668z"/>
        <path fill="#0B2135" d="M117.502 19.767c0 1.851 1.41 3.358 3.172 3.358 1.761 0 3.195-1.507 3.195-3.358 0-1.85-1.434-3.332-3.195-3.332-1.762 0-3.172 1.481-3.172 3.332zm9.661 0c0 3.646-2.917 6.623-6.49 6.623-3.572 0-6.489-2.977-6.489-6.623 0-3.644 2.917-6.623 6.49-6.623 3.572 0 6.49 2.979 6.49 6.623zM62.17 13.264a4.74 4.74 0 0 0-3.19 1.16l-.126-4.878c0-.285-.273-.577-.658-.523l-2.613.396V26.21H59v-7.353c0-1.068.711-2.05 1.756-2.274 1.434-.307 2.734.82 2.734 2.207v7.42h3.365v-7.994c0-2.632-2.052-4.91-4.684-4.953M95.778 13.683l-2.632 7.035-2.232-7.002a.474.474 0 0 0-.448-.33h-3l.37 1.034-2.033 6.298-2.656-7.036a.474.474 0 0 0-.443-.307h-3.24l5.03 12.836h1.926c.2 0 .38-.126.447-.315l2.607-7.293 2.584 7.292c.067.19.246.316.447.316h1.925l5.031-12.836h-3.239a.474.474 0 0 0-.444.308M70.93 19.767c0 1.851 1.41 3.358 3.171 3.358 1.762 0 3.196-1.507 3.196-3.358 0-1.85-1.434-3.332-3.196-3.332-1.762 0-3.17 1.481-3.17 3.332zm9.66 0c0 3.646-2.916 6.623-6.489 6.623-3.572 0-6.49-2.977-6.49-6.623 0-3.644 2.918-6.623 6.49-6.623 3.573 0 6.49 2.979 6.49 6.623zM142.284 13.683l-2.631 7.035-2.232-7.002a.474.474 0 0 0-.448-.33h-3.001l.37 1.034-2.032 6.298-2.657-7.036a.473.473 0 0 0-.444-.307h-3.24l5.032 12.836h1.925c.201 0 .379-.126.447-.315l2.608-7.293 2.583 7.292c.068.19.246.316.447.316h1.925l5.032-12.836h-3.24a.473.473 0 0 0-.444.308M48.454 26.39c-4.612 0-8.364-3.829-8.364-8.535 0-4.706 3.741-8.534 8.34-8.534 2.35 0 4.452 1.004 6.247 2.987l-1.604 1.978a.608.608 0 0 1-.873.082c-1.066-.923-2.39-1.717-4.152-1.575-2.233.179-4.132 1.937-4.501 4.19-.522 3.184 1.882 5.95 4.907 5.95 1.348 0 2.654-.527 3.745-1.5a.605.605 0 0 1 .887.101l1.594 2.12c-1.545 1.715-3.864 2.736-6.226 2.736M100.06 26.21V8.948h2.537a.62.62 0 0 1 .506.263l6.98 10.378V8.948h3.352V26.21h-2.468a.62.62 0 0 1-.507-.262l-7.035-10.446V26.21h-3.365"/>
    </g>
</svg>
